<svg xmlns="http://www.w3.org/2000/svg" width="250" zoomAndPan="magnify"
     viewBox="0 0 187.5 187.499992" height="250" preserveAspectRatio="xMidYMid meet" version="1.0">
  <defs>
    <clipPath id="0072b9bb07">
      <path d="M 7.40625 0 L 179.445312 0 L 179.445312 187 L 7.40625 187 Z M 7.40625 0 " clip-rule="nonzero"/>
    </clipPath>
    <clipPath id="28cca41a9b">
      <path d="M 77 31.679688 L 161 31.679688 L 161 138 L 77 138 Z M 77 31.679688 " clip-rule="nonzero"/>
    </clipPath>
    <clipPath id="32ffca4063">
      <path d="M 20.5 106 L 67 106 L 67 150 L 20.5 150 Z M 20.5 106 " clip-rule="nonzero"/>
    </clipPath>
  </defs>
  <g clip-path="url(#0072b9bb07)">
    <path fill="#000000"
          d="M 10.339844 179.523438 L 10.753906 175.140625 C 13.136719 125.898438 14.402344 79.738281 14.550781 36.664062 L 14.707031 59.082031 L 14.933594 52.839844 C 15.097656 50.855469 15.003906 42.972656 14.648438 29.191406 L 14.703125 9.792969 C 14.707031 8.628906 14.71875 8.484375 14.730469 9.351562 L 14.75 7.636719 L 14.261719 8.410156 L 28.015625 8.546875 C 69.699219 8.886719 70.652344 8.726562 30.875 8.0625 L 116.933594 8.566406 C 141.054688 8.933594 159.644531 9.582031 172.710938 10.507812 L 168.921875 6.695312 C 167.851562 25.082031 166.902344 57.734375 166.074219 104.65625 L 166.433594 91.066406 L 166.515625 93.753906 C 166.289062 96.886719 166.476562 122.707031 167.078125 171.226562 C 166.800781 143.371094 166.824219 122.410156 167.144531 108.351562 L 167.171875 107.96875 L 167.160156 118.980469 L 167.089844 129.304688 L 167.460938 173.800781 C 167.742188 167.007812 167.867188 159.667969 167.832031 151.78125 L 168.335938 159.171875 C 168.417969 160.191406 168.460938 160.457031 168.460938 159.96875 L 168.375 144.800781 L 168.835938 159.28125 L 169.535156 108.109375 L 169.464844 140.734375 L 169.917969 127.761719 L 171.820312 164.578125 C 172.121094 166.597656 171.914062 167.082031 171.195312 166.039062 L 170.316406 161.554688 C 170.242188 161.257812 170.203125 161.25 170.207031 161.539062 L 171.464844 181.726562 L 170.859375 180.972656 L 150.308594 181.792969 L 121.390625 182.144531 C 120.785156 182.171875 121.179688 182.183594 122.570312 182.1875 L 135 182.1875 L 121.535156 182.355469 C 75.164062 182.535156 48.539062 182.460938 41.667969 182.128906 L 29.328125 182.601562 C 35.238281 182.996094 42.878906 183.273438 52.253906 183.4375 L 34.429688 183.65625 L 67.5625 184.5625 L 25.488281 185.148438 L 73.9375 185.414062 C 58.574219 185.777344 58.660156 186.066406 74.199219 186.285156 L 118.046875 186.464844 L 75.398438 186.621094 L 110.789062 187.003906 L 171.890625 186.320312 L 176.917969 181.898438 C 176.785156 171.691406 176.953125 156.5625 177.421875 136.507812 L 177.292969 101.578125 C 177.394531 90.789062 177.460938 86.679688 177.496094 89.246094 L 177.535156 72.882812 C 178.207031 61.960938 178.578125 47.128906 178.660156 28.394531 C 178.792969 23.820312 178.984375 22.039062 179.234375 23.046875 L 179.449219 7.476562 L 172.558594 -0.00390625 L 81.082031 2.761719 L 52.710938 2.941406 L 51.089844 2.902344 L 57.738281 2.695312 L 67.207031 2.523438 L 43.554688 2.519531 L 14.785156 3.128906 L 9.578125 7.136719 L 9.828125 17.925781 L 7.417969 109.84375 L 7.410156 110.949219 L 7.566406 106.808594 L 8.0625 92.003906 L 8.511719 76.042969 C 8.558594 78.515625 8.589844 81.621094 8.601562 85.355469 L 7.527344 151.867188 L 7.996094 164.925781 L 8.433594 157 C 8.25 156.84375 8.585938 156.675781 9.441406 156.5 L 9.53125 172.304688 L 9.921875 152.695312 L 9.902344 168.429688 L 10.265625 181.425781 L 10.339844 179.523438 "
          fill-opacity="1" fill-rule="nonzero"/>
  </g>
  <g clip-path="url(#28cca41a9b)">
    <path fill="#000000"
          d="M 145.234375 122.722656 C 123.128906 149.269531 100.183594 134.191406 92.695312 128.015625 C 98.46875 121.707031 101.121094 118.277344 111.140625 110.015625 C 121.503906 114.253906 140.046875 106.210938 140.046875 106.210938 C 127.570312 109.480469 118.035156 107.625 114.648438 106.730469 C 115.375 106.160156 127.683594 97.253906 131.40625 92.101562 C 141.707031 92.417969 150.214844 83.570312 150.214844 83.570312 C 149.9375 83.332031 144.726562 87.328125 134.875 87.804688 C 145.074219 72.816406 144.617188 59.027344 144.617188 59.027344 C 144.617188 59.027344 140.851562 71.613281 131.265625 85.414062 C 129.304688 75.617188 131.804688 68.949219 131.527344 68.730469 C 131.527344 68.730469 124.851562 79.734375 127.929688 89.847656 C 122.6875 95.835938 114.429688 101.007812 111.378906 103.328125 C 111.140625 102.703125 107.953125 92.25 111.050781 76.8125 C 111.050781 76.8125 102.652344 96.222656 107.914062 106.289062 C 101.476562 111.242188 99.753906 112.457031 89.003906 124.472656 C 64.664062 106.25 85.5625 73.652344 103.789062 66.058594 C 122.539062 58.238281 130.351562 59.8125 147.535156 31.679688 C 166.355469 59.5625 163.269531 101.078125 145.234375 122.722656 Z M 145.234375 122.722656 "
          fill-opacity="1" fill-rule="nonzero"/>
  </g>
  <g clip-path="url(#32ffca4063)">
    <path fill="#000000"
          d="M 41.359375 119.890625 C 52.429688 124.957031 60.109375 131.832031 65.382812 138.410156 C 65.445312 138.21875 65.527344 138.058594 65.585938 137.839844 C 75.609375 101.757812 20.511719 106.777344 20.511719 106.777344 C 20.511719 106.777344 28.121094 118.496094 32.367188 131.273438 C 37.273438 146.082031 57.328125 158.386719 64.535156 140.800781 C 59.332031 133.792969 51.886719 126.128906 41.359375 119.890625 Z M 41.359375 119.890625 "
          fill-opacity="1" fill-rule="nonzero"/>
  </g>
  <path fill="FFFFFF"
        d="M 92.695312 128.015625 C 92.632812 127.933594 88.890625 124.585938 88.949219 124.507812 C 79.503906 134.910156 75.824219 143.800781 74.925781 155.128906 C 73.496094 151.234375 70.636719 144.996094 65.382812 138.410156 C 65.132812 139.273438 64.84375 140.050781 64.535156 140.800781 C 70.132812 148.34375 72.300781 158.617188 73.574219 161.984375 C 73.574219 171.394531 74.605469 176.097656 75.433594 183.949219 C 75.433594 183.949219 80.496094 186.9375 81.90625 181.359375 C 79.046875 176.632812 76.242188 144.117188 92.695312 128.015625 Z M 92.695312 128.015625 "
        fill-opacity="1" fill-rule="nonzero"/>
</svg>
