<svg xmlns="http://www.w3.org/2000/svg" zoomAndPan="magnify"
     viewBox="0 0 375 135.000003" preserveAspectRatio="xMidYMid meet" version="1.0">
  <defs>
    <g/>
    <clipPath id="c05f924c98">
      <path d="M 53 27.386719 L 75 27.386719 L 75 54 L 53 54 Z M 53 27.386719 " clip-rule="nonzero"/>
    </clipPath>
    <clipPath id="ec4e557618">
      <path d="M 39.828125 45 L 52 45 L 52 57 L 39.828125 57 Z M 39.828125 45 " clip-rule="nonzero"/>
    </clipPath>
  </defs>
  <g clip-path="url(#c05f924c98)">
    <path fill="currentColor"
          d="M 70.386719 49.660156 C 64.972656 56.152344 59.347656 52.464844 57.515625 50.953125 C 58.929688 49.410156 59.578125 48.570312 62.035156 46.550781 C 64.574219 47.585938 69.117188 45.621094 69.117188 45.621094 C 66.058594 46.417969 63.722656 45.964844 62.894531 45.746094 C 63.070312 45.609375 66.085938 43.429688 67 42.167969 C 69.523438 42.246094 71.609375 40.082031 71.609375 40.082031 C 71.539062 40.023438 70.265625 41 67.847656 41.117188 C 70.347656 37.453125 70.238281 34.078125 70.238281 34.078125 C 70.238281 34.078125 69.3125 37.15625 66.964844 40.53125 C 66.484375 38.136719 67.097656 36.503906 67.027344 36.453125 C 67.027344 36.453125 65.394531 39.144531 66.148438 41.617188 C 64.863281 43.082031 62.839844 44.347656 62.09375 44.914062 C 62.035156 44.761719 61.253906 42.203125 62.011719 38.429688 C 62.011719 38.429688 59.953125 43.175781 61.242188 45.636719 C 59.667969 46.851562 59.242188 47.148438 56.609375 50.085938 C 50.644531 45.628906 55.765625 37.65625 60.234375 35.796875 C 64.828125 33.886719 66.742188 34.269531 70.953125 27.390625 C 75.5625 34.210938 74.808594 44.363281 70.386719 49.660156 Z M 70.386719 49.660156 "
          fill-opacity="1" fill-rule="nonzero"/>
  </g>
  <g clip-path="url(#ec4e557618)">
    <path fill="currentColor"
          d="M 44.933594 48.964844 C 47.648438 50.203125 49.53125 51.886719 50.820312 53.496094 C 50.835938 53.449219 50.859375 53.410156 50.871094 53.355469 C 53.328125 44.53125 39.828125 45.757812 39.828125 45.757812 C 39.828125 45.757812 41.691406 48.625 42.730469 51.75 C 43.933594 55.371094 48.847656 58.382812 50.613281 54.082031 C 49.339844 52.367188 47.515625 50.492188 44.933594 48.964844 Z M 44.933594 48.964844 "
          fill-opacity="1" fill-rule="nonzero"/>
  </g>
  <path fill="currentColor"
        d="M 57.515625 50.953125 C 57.5 50.933594 56.582031 50.113281 56.597656 50.09375 C 54.28125 52.640625 53.378906 54.8125 53.160156 57.585938 C 52.808594 56.632812 52.109375 55.105469 50.820312 53.496094 C 50.761719 53.707031 50.691406 53.898438 50.613281 54.078125 C 51.984375 55.925781 52.515625 58.4375 52.828125 59.261719 C 52.828125 61.5625 53.082031 62.714844 53.285156 64.632812 C 53.285156 64.632812 54.523438 65.367188 54.871094 64 C 54.171875 62.84375 53.484375 54.890625 57.515625 50.953125 Z M 57.515625 50.953125 "
        fill-opacity="1" fill-rule="nonzero"/>
  <g fill="currentColor" fill-opacity="1">
    <g transform="translate(46.44394, 89.929529)">
      <g>
        <path
          d="M 3.015625 0 L 3.015625 -25.828125 L 11.9375 -25.828125 L 11.9375 -23.109375 L 12.03125 -23.109375 C 14.34375 -25.421875 16.8125 -26.578125 19.4375 -26.578125 C 21.3125 -26.578125 23.070312 -26.191406 24.71875 -25.421875 C 26.363281 -24.648438 27.601562 -23.457031 28.4375 -21.84375 C 31.0625 -25 33.914062 -26.578125 37 -26.578125 C 39.75 -26.578125 42.113281 -25.804688 44.09375 -24.265625 C 46.082031 -22.722656 47.078125 -20.304688 47.078125 -17.015625 L 47.078125 0 L 38.15625 0 L 38.15625 -14.59375 C 38.15625 -15.96875 37.773438 -17.117188 37.015625 -18.046875 C 36.265625 -18.972656 35.132812 -19.4375 33.625 -19.4375 C 32.320312 -19.4375 31.328125 -19.039062 30.640625 -18.25 C 29.953125 -17.457031 29.570312 -16.507812 29.5 -15.40625 L 29.5 0 L 20.59375 0 L 20.59375 -14.59375 C 20.59375 -15.96875 20.210938 -17.117188 19.453125 -18.046875 C 18.703125 -18.972656 17.570312 -19.4375 16.0625 -19.4375 C 14.6875 -19.4375 13.65625 -19.003906 12.96875 -18.140625 C 12.28125 -17.285156 11.9375 -16.273438 11.9375 -15.109375 L 11.9375 0 Z M 3.015625 0 "/>
      </g>
    </g>
  </g>
  <g fill="currentColor" fill-opacity="1">
    <g transform="translate(91.749292, 89.929529)">
      <g>
        <path
          d="M 5.453125 -3.0625 C 2.585938 -5.613281 1.15625 -8.882812 1.15625 -12.875 C 1.15625 -16.875 2.648438 -20.15625 5.640625 -22.71875 C 8.628906 -25.289062 12.320312 -26.578125 16.71875 -26.578125 C 21.039062 -26.578125 24.6875 -25.285156 27.65625 -22.703125 C 30.632812 -20.117188 32.125 -16.847656 32.125 -12.890625 C 32.125 -8.929688 30.671875 -5.664062 27.765625 -3.09375 C 24.859375 -0.53125 21.175781 0.75 16.71875 0.75 C 12.082031 0.75 8.328125 -0.519531 5.453125 -3.0625 Z M 12.359375 -17.265625 C 11.203125 -16.128906 10.625 -14.671875 10.625 -12.890625 C 10.625 -11.109375 11.175781 -9.65625 12.28125 -8.53125 C 13.382812 -7.40625 14.84375 -6.84375 16.65625 -6.84375 C 18.40625 -6.84375 19.84375 -7.410156 20.96875 -8.546875 C 22.09375 -9.691406 22.65625 -11.140625 22.65625 -12.890625 C 22.65625 -14.671875 22.078125 -16.128906 20.921875 -17.265625 C 19.765625 -18.410156 18.34375 -18.984375 16.65625 -18.984375 C 14.945312 -18.984375 13.515625 -18.410156 12.359375 -17.265625 Z M 12.359375 -17.265625 "/>
      </g>
    </g>
  </g>
  <g fill="currentColor" fill-opacity="1">
    <g transform="translate(120.744391, 89.929529)">
      <g>
        <path
          d="M 3.015625 0 L 3.015625 -25.828125 L 11.9375 -25.828125 L 11.9375 -23.109375 L 12.03125 -23.109375 C 14.34375 -25.421875 16.8125 -26.578125 19.4375 -26.578125 C 20.707031 -26.578125 21.972656 -26.410156 23.234375 -26.078125 C 24.492188 -25.742188 25.703125 -25.222656 26.859375 -24.515625 C 28.015625 -23.804688 28.953125 -22.804688 29.671875 -21.515625 C 30.398438 -20.222656 30.765625 -18.722656 30.765625 -17.015625 L 30.765625 0 L 21.84375 0 L 21.84375 -14.59375 C 21.84375 -15.9375 21.414062 -17.113281 20.5625 -18.125 C 19.707031 -19.132812 18.59375 -19.640625 17.21875 -19.640625 C 15.875 -19.640625 14.65625 -19.117188 13.5625 -18.078125 C 12.476562 -17.035156 11.9375 -15.875 11.9375 -14.59375 L 11.9375 0 Z M 3.015625 0 "/>
      </g>
    </g>
  </g>
  <g fill="currentColor" fill-opacity="1">
    <g transform="translate(149.73949, 89.929529)">
      <g>
        <path
          d="M 29.15625 -11.6875 L 10.421875 -11.6875 C 10.421875 -9.875 11.003906 -8.53125 12.171875 -7.65625 C 13.347656 -6.78125 14.628906 -6.34375 16.015625 -6.34375 C 17.453125 -6.34375 18.585938 -6.535156 19.421875 -6.921875 C 20.265625 -7.304688 21.222656 -8.070312 22.296875 -9.21875 L 28.75 -5.984375 C 26.0625 -1.492188 21.597656 0.75 15.359375 0.75 C 11.460938 0.75 8.117188 -0.582031 5.328125 -3.25 C 2.546875 -5.914062 1.15625 -9.128906 1.15625 -12.890625 C 1.15625 -16.648438 2.546875 -19.867188 5.328125 -22.546875 C 8.117188 -25.234375 11.460938 -26.578125 15.359375 -26.578125 C 19.453125 -26.578125 22.78125 -25.394531 25.34375 -23.03125 C 27.914062 -20.664062 29.203125 -17.285156 29.203125 -12.890625 C 29.203125 -12.285156 29.1875 -11.882812 29.15625 -11.6875 Z M 10.671875 -16.609375 L 20.484375 -16.609375 C 20.285156 -17.953125 19.757812 -18.984375 18.90625 -19.703125 C 18.050781 -20.429688 16.953125 -20.796875 15.609375 -20.796875 C 14.128906 -20.796875 12.953125 -20.40625 12.078125 -19.625 C 11.210938 -18.851562 10.742188 -17.847656 10.671875 -16.609375 Z M 10.671875 -16.609375 "/>
      </g>
    </g>
  </g>
  <g fill="currentColor" fill-opacity="1">
    <g transform="translate(175.814851, 89.929529)">
      <g>
        <path
          d="M 22.609375 -25.828125 L 32.875 -25.828125 L 12.59375 13.09375 L 2.3125 13.09375 L 11.234375 -4.03125 L -1 -25.828125 L 9.265625 -25.828125 L 16.46875 -12.59375 Z M 22.609375 -25.828125 "/>
      </g>
    </g>
  </g>
  <g fill="currentColor" fill-opacity="1">
    <g transform="translate(203.400426, 89.929529)">
      <g>
        <path
          d="M 9.5625 -25.828125 L 15.859375 -11.78125 L 22.15625 -25.828125 L 32.71875 -25.828125 L 18.875 0 L 12.84375 0 L -1 -25.828125 Z M 9.5625 -25.828125 "/>
      </g>
    </g>
  </g>
  <g fill="currentColor" fill-opacity="1">
    <g transform="translate(230.834971, 89.929529)">
      <g>
        <path
          d="M 29.15625 -11.6875 L 10.421875 -11.6875 C 10.421875 -9.875 11.003906 -8.53125 12.171875 -7.65625 C 13.347656 -6.78125 14.628906 -6.34375 16.015625 -6.34375 C 17.453125 -6.34375 18.585938 -6.535156 19.421875 -6.921875 C 20.265625 -7.304688 21.222656 -8.070312 22.296875 -9.21875 L 28.75 -5.984375 C 26.0625 -1.492188 21.597656 0.75 15.359375 0.75 C 11.460938 0.75 8.117188 -0.582031 5.328125 -3.25 C 2.546875 -5.914062 1.15625 -9.128906 1.15625 -12.890625 C 1.15625 -16.648438 2.546875 -19.867188 5.328125 -22.546875 C 8.117188 -25.234375 11.460938 -26.578125 15.359375 -26.578125 C 19.453125 -26.578125 22.78125 -25.394531 25.34375 -23.03125 C 27.914062 -20.664062 29.203125 -17.285156 29.203125 -12.890625 C 29.203125 -12.285156 29.1875 -11.882812 29.15625 -11.6875 Z M 10.671875 -16.609375 L 20.484375 -16.609375 C 20.285156 -17.953125 19.757812 -18.984375 18.90625 -19.703125 C 18.050781 -20.429688 16.953125 -20.796875 15.609375 -20.796875 C 14.128906 -20.796875 12.953125 -20.40625 12.078125 -19.625 C 11.210938 -18.851562 10.742188 -17.847656 10.671875 -16.609375 Z M 10.671875 -16.609375 "/>
      </g>
    </g>
  </g>
  <g fill="currentColor" fill-opacity="1">
    <g transform="translate(256.910322, 89.929529)">
      <g>
        <path
          d="M 3.015625 0 L 3.015625 -25.828125 L 11.9375 -25.828125 L 11.9375 -22.09375 L 12.03125 -22.09375 C 12.101562 -22.226562 12.210938 -22.394531 12.359375 -22.59375 C 12.515625 -22.800781 12.84375 -23.15625 13.34375 -23.65625 C 13.84375 -24.164062 14.378906 -24.617188 14.953125 -25.015625 C 15.523438 -25.421875 16.265625 -25.78125 17.171875 -26.09375 C 18.078125 -26.414062 19 -26.578125 19.9375 -26.578125 C 20.90625 -26.578125 21.859375 -26.441406 22.796875 -26.171875 C 23.742188 -25.910156 24.4375 -25.644531 24.875 -25.375 L 25.578125 -24.96875 L 21.84375 -17.421875 C 20.738281 -18.359375 19.195312 -18.828125 17.21875 -18.828125 C 16.144531 -18.828125 15.222656 -18.59375 14.453125 -18.125 C 13.679688 -17.65625 13.132812 -17.082031 12.8125 -16.40625 C 12.488281 -15.738281 12.257812 -15.171875 12.125 -14.703125 C 12 -14.234375 11.9375 -13.863281 11.9375 -13.59375 L 11.9375 0 Z M 3.015625 0 "/>
      </g>
    </g>
  </g>
  <g fill="currentColor" fill-opacity="1">
    <g transform="translate(277.69995, 89.929529)">
      <g>
        <path
          d="M 14.25 -26.578125 C 15.726562 -26.578125 17.1875 -26.410156 18.625 -26.078125 C 20.070312 -25.742188 21.144531 -25.410156 21.84375 -25.078125 L 22.90625 -24.5625 L 19.984375 -18.734375 C 17.972656 -19.804688 16.0625 -20.34375 14.25 -20.34375 C 13.238281 -20.34375 12.523438 -20.234375 12.109375 -20.015625 C 11.691406 -19.796875 11.484375 -19.382812 11.484375 -18.78125 C 11.484375 -18.644531 11.5 -18.507812 11.53125 -18.375 C 11.5625 -18.238281 11.625 -18.113281 11.71875 -18 C 11.820312 -17.882812 11.914062 -17.78125 12 -17.6875 C 12.09375 -17.601562 12.238281 -17.507812 12.4375 -17.40625 C 12.632812 -17.3125 12.789062 -17.238281 12.90625 -17.1875 C 13.03125 -17.132812 13.222656 -17.054688 13.484375 -16.953125 C 13.753906 -16.859375 13.957031 -16.785156 14.09375 -16.734375 C 14.226562 -16.679688 14.453125 -16.601562 14.765625 -16.5 C 15.085938 -16.40625 15.332031 -16.34375 15.5 -16.3125 C 16.539062 -16.007812 17.445312 -15.671875 18.21875 -15.296875 C 18.988281 -14.929688 19.800781 -14.429688 20.65625 -13.796875 C 21.519531 -13.160156 22.1875 -12.351562 22.65625 -11.375 C 23.125 -10.40625 23.359375 -9.300781 23.359375 -8.0625 C 23.359375 -2.1875 19.28125 0.75 11.125 0.75 C 9.28125 0.75 7.523438 0.46875 5.859375 -0.09375 C 4.203125 -0.664062 3.003906 -1.238281 2.265625 -1.8125 L 1.15625 -2.71875 L 4.78125 -8.8125 C 5.050781 -8.570312 5.40625 -8.289062 5.84375 -7.96875 C 6.28125 -7.65625 7.066406 -7.222656 8.203125 -6.671875 C 9.347656 -6.117188 10.335938 -5.84375 11.171875 -5.84375 C 13.015625 -5.84375 13.9375 -6.460938 13.9375 -7.703125 C 13.9375 -8.273438 13.703125 -8.71875 13.234375 -9.03125 C 12.765625 -9.351562 11.96875 -9.710938 10.84375 -10.109375 C 9.71875 -10.515625 8.835938 -10.890625 8.203125 -11.234375 C 6.597656 -12.066406 5.320312 -13.007812 4.375 -14.0625 C 3.4375 -15.125 2.96875 -16.53125 2.96875 -18.28125 C 2.96875 -20.894531 3.984375 -22.929688 6.015625 -24.390625 C 8.046875 -25.847656 10.789062 -26.578125 14.25 -26.578125 Z M 14.25 -26.578125 "/>
      </g>
    </g>
  </g>
  <g fill="currentColor" fill-opacity="1">
    <g transform="translate(298.187556, 89.929529)">
      <g>
        <path
          d="M 29.15625 -11.6875 L 10.421875 -11.6875 C 10.421875 -9.875 11.003906 -8.53125 12.171875 -7.65625 C 13.347656 -6.78125 14.628906 -6.34375 16.015625 -6.34375 C 17.453125 -6.34375 18.585938 -6.535156 19.421875 -6.921875 C 20.265625 -7.304688 21.222656 -8.070312 22.296875 -9.21875 L 28.75 -5.984375 C 26.0625 -1.492188 21.597656 0.75 15.359375 0.75 C 11.460938 0.75 8.117188 -0.582031 5.328125 -3.25 C 2.546875 -5.914062 1.15625 -9.128906 1.15625 -12.890625 C 1.15625 -16.648438 2.546875 -19.867188 5.328125 -22.546875 C 8.117188 -25.234375 11.460938 -26.578125 15.359375 -26.578125 C 19.453125 -26.578125 22.78125 -25.394531 25.34375 -23.03125 C 27.914062 -20.664062 29.203125 -17.285156 29.203125 -12.890625 C 29.203125 -12.285156 29.1875 -11.882812 29.15625 -11.6875 Z M 10.671875 -16.609375 L 20.484375 -16.609375 C 20.285156 -17.953125 19.757812 -18.984375 18.90625 -19.703125 C 18.050781 -20.429688 16.953125 -20.796875 15.609375 -20.796875 C 14.128906 -20.796875 12.953125 -20.40625 12.078125 -19.625 C 11.210938 -18.851562 10.742188 -17.847656 10.671875 -16.609375 Z M 10.671875 -16.609375 "/>
      </g>
    </g>
  </g>
</svg>
